<?xml version="1.0" encoding="UTF-8" standalone="no"?>
<!DOCTYPE svg PUBLIC "-//W3C//DTD SVG 1.1//EN" "http://www.w3.org/Graphics/SVG/1.1/DTD/svg11.dtd">
<svg width="100%" height="100%" viewBox="0 0 529 295" version="1.1" xmlns="http://www.w3.org/2000/svg" xmlns:xlink="http://www.w3.org/1999/xlink" xml:space="preserve" xmlns:serif="http://www.serif.com/" style="fill-rule:evenodd;clip-rule:evenodd;stroke-linejoin:round;stroke-miterlimit:2;">
    <g transform="matrix(1,0,0,1,-930.137,-2852.05)">
        <g transform="matrix(0.416667,0,0,-0.416667,-2945.43,25106)">
            <path d="M10351,53401C10343,53396 10331,53394 10323,53397C10303,53405 10281,53382 10287,53360C10291,53345 10287,53340 10272,53340C10238,53340 10236,53320 10269,53309C10305,53296 10302,53285 10260,53277C10244,53273 10230,53266 10230,53259C10230,53252 10241,53251 10261,53255C10284,53260 10291,53259 10288,53249C10285,53241 10266,53236 10237,53235C10191,53235 10171,53226 10183,53213C10187,53210 10207,53208 10227,53209C10263,53212 10346,53213 10363,53211C10367,53210 10370,53206 10370,53200C10370,53195 10367,53191 10363,53193C10358,53194 10354,53192 10353,53188C10346,53168 10351,53130 10360,53130C10366,53130 10370,53136 10370,53144C10370,53163 10410,53172 10417,53155C10420,53145 10431,53143 10451,53147C10469,53150 10480,53148 10480,53142C10480,53136 10458,53128 10431,53124C10404,53121 10377,53114 10371,53110C10343,53093 10356,53025 10385,53036C10394,53040 10400,53055 10400,53071C10400,53099 10401,53100 10458,53102C10489,53102 10523,53103 10533,53102C10562,53099 10552,53117 10520,53124C10478,53132 10483,53146 10530,53154C10556,53158 10570,53165 10570,53175C10570,53186 10557,53190 10516,53190C10486,53190 10458,53186 10455,53180C10448,53168 10430,53167 10412,53178C10395,53189 10407,53220 10429,53220C10439,53220 10432,53229 10411,53242C10381,53261 10379,53265 10396,53271C10412,53277 10410,53280 10383,53290C10365,53297 10352,53306 10355,53311C10358,53315 10367,53317 10375,53314C10395,53306 10407,53339 10389,53350C10381,53356 10373,53354 10368,53347C10364,53340 10360,53340 10360,53345C10360,53351 10367,53365 10375,53376C10395,53405 10381,53420 10351,53401Z" style="fill-rule:nonzero;"/>
            <path d="M9726,53385C9722,53373 9725,53369 9737,53372C9755,53375 9758,53392 9742,53398C9737,53399 9730,53394 9726,53385Z" style="fill-rule:nonzero;"/>
            <path d="M9803,53393C9785,53387 9787,53370 9804,53370C9821,53370 9834,53386 9823,53393C9818,53395 9809,53395 9803,53393Z" style="fill-rule:nonzero;"/>
            <path d="M9752,53339C9739,53334 9724,53332 9719,53335C9714,53338 9701,53336 9690,53330C9675,53322 9671,53313 9675,53299C9680,53284 9676,53277 9661,53273C9646,53269 9641,53262 9645,53250C9649,53236 9641,53230 9605,53220C9580,53213 9560,53204 9560,53199C9560,53185 9601,53178 9616,53191C9626,53199 9634,53200 9641,53193C9653,53181 9603,53157 9555,53151C9537,53149 9574,53130 9598,53130C9617,53130 9620,53125 9620,53088C9620,53048 9620,53047 9639,53064C9650,53074 9660,53094 9662,53108C9664,53124 9672,53136 9683,53138C9697,53141 9700,53134 9700,53098C9700,53074 9705,53048 9710,53040C9719,53027 9722,53028 9735,53044C9750,53063 9750,53063 9750,53043C9750,53019 9774,52995 9790,53005C9795,53008 9800,53036 9800,53066C9800,53126 9793,53122 9890,53125C9920,53126 9946,53133 9948,53139C9950,53145 9942,53150 9931,53150C9917,53150 9912,53155 9916,53165C9921,53176 9914,53180 9889,53180C9870,53180 9848,53184 9840,53190C9829,53197 9832,53201 9855,53210L9885,53222L9860,53231C9847,53237 9810,53240 9778,53239C9713,53236 9690,53246 9741,53254C9826,53267 9859,53267 9863,53256C9866,53248 9871,53248 9881,53257C9891,53267 9887,53272 9857,53285C9837,53293 9814,53300 9805,53300C9778,53300 9789,53317 9822,53324C9839,53327 9851,53332 9849,53334C9838,53343 9772,53347 9752,53339ZM9737,53134C9728,53125 9709,53140 9716,53152C9720,53158 9726,53158 9733,53151C9739,53145 9741,53138 9737,53134Z" style="fill-rule:nonzero;"/>
            <path d="M9885,53291C9878,53279 9897,53267 9910,53275C9921,53282 9914,53300 9900,53300C9895,53300 9889,53296 9885,53291Z" style="fill-rule:nonzero;"/>
            <path d="M10140,53220C10140,53215 10145,53210 10150,53210C10156,53210 10160,53215 10160,53220C10160,53226 10156,53230 10150,53230C10145,53230 10140,53226 10140,53220Z" style="fill-rule:nonzero;"/>
            <path d="M10283,53180C10279,53164 10269,53160 10239,53160C10217,53160 10200,53155 10200,53149C10200,53143 10212,53139 10228,53140C10274,53143 10280,53141 10280,53116C10280,53072 10292,53030 10305,53030C10336,53030 10349,53172 10320,53190C10297,53204 10289,53202 10283,53180Z" style="fill-rule:nonzero;"/>
            <path d="M10168,53143C10175,53140 10184,53141 10187,53144C10191,53147 10185,53150 10174,53149C10163,53149 10160,53146 10168,53143Z" style="fill-rule:nonzero;"/>
            <path d="M9977,53133C9965,53121 9970,53111 9985,53116C9993,53120 10000,53126 10000,53131C10000,53142 9986,53143 9977,53133Z" style="fill-rule:nonzero;"/>
            <path d="M9485,53090C9489,53084 9496,53082 9501,53085C9515,53094 9512,53100 9494,53100C9486,53100 9482,53095 9485,53090Z" style="fill-rule:nonzero;"/>
            <path d="M9991,53068C9991,53055 9994,53051 9997,53058C9999,53064 10008,53070 10016,53070C10024,53070 10030,53075 10030,53080C10030,53086 10021,53090 10010,53090C9996,53090 9990,53084 9991,53068Z" style="fill-rule:nonzero;"/>
            <path d="M10044,53076C10035,53053 10053,53035 10074,53047C10089,53055 10089,53058 10071,53074C10052,53091 10050,53092 10044,53076Z" style="fill-rule:nonzero;"/>
            <path d="M9444,53036C9426,53022 9426,53021 9443,53015C9459,53008 9459,53007 9444,52995C9435,52989 9418,52985 9406,52987C9395,52989 9376,52985 9365,52976C9346,52962 9346,52962 9372,52950C9407,52934 9398,52915 9344,52891C9288,52866 9287,52850 9342,52857C9380,52863 9385,52860 9411,52829C9427,52810 9440,52801 9440,52808C9440,52814 9436,52820 9430,52820C9414,52820 9419,52849 9438,52868C9451,52881 9456,52897 9452,52918C9450,52936 9452,52950 9458,52950C9472,52950 9480,52925 9480,52879C9480,52851 9484,52840 9495,52840C9509,52840 9511,52847 9514,52905C9515,52920 9524,52926 9549,52930C9568,52933 9585,52941 9588,52948C9593,52963 9558,52964 9543,52949C9536,52942 9530,52942 9526,52948C9523,52953 9531,52961 9545,52964C9575,52972 9578,52996 9550,53003C9537,53006 9532,53014 9536,53023C9546,53049 9476,53059 9444,53036Z" style="fill-rule:nonzero;"/>
            <path d="M10008,53004C9998,53001 9990,52994 9990,52989C9990,52983 9984,52982 9978,52987C9953,53002 9930,53000 9930,52984C9930,52963 9901,52941 9873,52940C9846,52940 9820,52930 9820,52920C9820,52908 9873,52901 9892,52911C9914,52923 9965,52911 9952,52898C9946,52892 9919,52886 9891,52884C9830,52880 9760,52862 9760,52851C9760,52835 9773,52830 9787,52841C9797,52850 9800,52849 9800,52840C9800,52832 9815,52830 9850,52834C9879,52837 9901,52835 9901,52830C9902,52824 9904,52816 9905,52810C9906,52805 9908,52780 9909,52755C9910,52723 9914,52710 9924,52710C9944,52710 9953,52745 9941,52769C9934,52782 9933,52791 9940,52795C9945,52798 9950,52812 9950,52826C9950,52841 9956,52850 9966,52850C9974,52850 9978,52845 9975,52840C9971,52834 9974,52822 9981,52814C9988,52806 9993,52781 9992,52759C9991,52735 9994,52721 10000,52725C10006,52728 10010,52746 10010,52763C10010,52814 10022,52825 10056,52808C10083,52795 10085,52791 10082,52746C10079,52709 10081,52699 10092,52702C10107,52707 10111,52778 10098,52796C10087,52811 10111,52820 10174,52826C10220,52831 10273,52849 10243,52850C10236,52850 10222,52858 10212,52868C10203,52877 10183,52890 10168,52897C10150,52905 10142,52915 10146,52924C10150,52935 10143,52938 10111,52935C10088,52934 10063,52927 10055,52920C10043,52910 10040,52910 10040,52922C10040,52937 10067,52963 10095,52973C10135,52989 10054,53017 10008,53004ZM10011,52927C10006,52913 10004,52899 10007,52896C10011,52893 10010,52890 10007,52890C9990,52890 9981,52929 9993,52953C10008,52986 10024,52963 10011,52927Z" style="fill-rule:nonzero;"/>
        </g>
    </g>
</svg>
