<?xml version="1.0" encoding="UTF-8" standalone="no"?>
<!DOCTYPE svg PUBLIC "-//W3C//DTD SVG 1.1//EN" "http://www.w3.org/Graphics/SVG/1.1/DTD/svg11.dtd">
<svg width="100%" height="100%" viewBox="0 0 1139 546" version="1.1" xmlns="http://www.w3.org/2000/svg" xmlns:xlink="http://www.w3.org/1999/xlink" xml:space="preserve" xmlns:serif="http://www.serif.com/" style="fill-rule:evenodd;clip-rule:evenodd;stroke-linejoin:round;stroke-miterlimit:2;">
    <g transform="matrix(1,0,0,1,-1910.94,-1724.41)">
        <g transform="matrix(0.416667,0,0,-0.416667,337.19,12440.5)">
            <path d="M6004,25712C5970,25701 5914,25659 5904,25636C5899,25625 5883,25609 5868,25602C5852,25595 5840,25582 5840,25574C5840,25566 5836,25561 5830,25565C5825,25568 5799,25550 5773,25525C5747,25500 5716,25474 5705,25466C5694,25458 5689,25448 5693,25444C5697,25439 5705,25442 5710,25450C5715,25458 5722,25461 5726,25457C5736,25448 5790,25481 5790,25497C5790,25504 5795,25510 5801,25510C5817,25510 5864,25547 5937,25618C5980,25659 6010,25680 6026,25680C6043,25680 6050,25686 6050,25700C6050,25721 6041,25723 6004,25712Z" style="fill-rule:nonzero;"/>
        </g>
        <g transform="matrix(0.416667,0,0,-0.416667,337.19,12440.5)">
            <path d="M6148,25703C6124,25697 6125,25683 6150,25668C6161,25661 6170,25651 6170,25646C6170,25636 6219,25559 6232,25550C6246,25539 6312,25484 6328,25470C6348,25453 6413,25420 6427,25420C6433,25420 6445,25411 6454,25401C6473,25380 6510,25367 6510,25380C6510,25394 6458,25430 6438,25430C6428,25430 6405,25446 6387,25465C6370,25484 6349,25500 6342,25500C6335,25500 6306,25524 6278,25553C6249,25581 6223,25606 6218,25606C6197,25609 6196,25611 6208,25619C6219,25626 6217,25636 6196,25669C6181,25691 6169,25709 6167,25709C6166,25708 6157,25706 6148,25703Z" style="fill-rule:nonzero;"/>
        </g>
        <g transform="matrix(0.416667,0,0,-0.416667,337.19,12440.5)">
            <path d="M4804,25497C4801,25489 4791,25484 4781,25487C4768,25490 4761,25485 4757,25470C4753,25455 4746,25449 4736,25453C4727,25457 4720,25455 4720,25450C4720,25444 4709,25440 4695,25440C4681,25440 4667,25433 4664,25425C4660,25417 4650,25410 4639,25410C4629,25410 4617,25404 4613,25397C4609,25390 4591,25378 4574,25371C4556,25364 4534,25351 4523,25341C4513,25331 4493,25316 4478,25306C4446,25285 4433,25250 4461,25257C4471,25260 4486,25273 4495,25286C4503,25299 4517,25310 4525,25310C4533,25310 4540,25313 4540,25318C4540,25322 4555,25332 4573,25340C4590,25347 4614,25362 4624,25372C4635,25382 4653,25390 4664,25390C4675,25390 4695,25401 4709,25413C4724,25426 4760,25444 4791,25452L4847,25468L4895,25419C4922,25392 4951,25370 4961,25370C4971,25370 4982,25366 4985,25360C4988,25355 5008,25343 5028,25334C5048,25324 5067,25315 5070,25314C5073,25313 5082,25315 5089,25320C5099,25326 5097,25331 5078,25341C5017,25376 4982,25402 4971,25422C4942,25475 4817,25531 4804,25497Z" style="fill-rule:nonzero;"/>
        </g>
        <g transform="matrix(0.416667,0,0,-0.416667,337.19,12440.5)">
            <path d="M5534,25355C5518,25341 5510,25330 5516,25330C5522,25330 5533,25337 5540,25345C5547,25353 5559,25360 5566,25360C5574,25360 5580,25365 5580,25370C5580,25386 5565,25381 5534,25355Z" style="fill-rule:nonzero;"/>
        </g>
        <g transform="matrix(0.416667,0,0,-0.416667,337.19,12440.5)">
            <path d="M5772,25368C5756,25352 5757,25330 5773,25330C5780,25330 5791,25335 5798,25342C5807,25351 5810,25350 5810,25337C5810,25327 5818,25320 5830,25320C5846,25320 5850,25327 5850,25350C5850,25377 5847,25380 5817,25380C5799,25380 5779,25375 5772,25368Z" style="fill-rule:nonzero;"/>
        </g>
        <g transform="matrix(0.416667,0,0,-0.416667,337.19,12440.5)">
            <path d="M5910,25320C5898,25313 5900,25309 5920,25302C5947,25291 5967,25301 5956,25319C5947,25332 5930,25333 5910,25320Z" style="fill-rule:nonzero;"/>
        </g>
        <g transform="matrix(0.416667,0,0,-0.416667,337.19,12440.5)">
            <path d="M5110,25285C5110,25276 5116,25267 5124,25264C5132,25261 5136,25251 5133,25241C5129,25226 5162,25200 5190,25196C5193,25195 5207,25182 5222,25167C5237,25152 5255,25140 5261,25140C5268,25140 5296,25126 5323,25108C5359,25085 5375,25079 5378,25089C5381,25097 5387,25094 5397,25080C5416,25053 5468,25030 5510,25030C5526,25030 5563,25021 5592,25010C5620,24999 5646,24992 5648,24995C5651,24997 5666,24992 5682,24984C5698,24975 5718,24971 5726,24974C5755,24985 5738,24998 5678,25010C5643,25017 5608,25029 5599,25036C5591,25044 5573,25050 5561,25050C5549,25050 5521,25059 5499,25071C5477,25082 5453,25089 5447,25087C5440,25085 5422,25094 5407,25106C5391,25119 5372,25130 5364,25130C5356,25130 5340,25139 5328,25150C5312,25165 5303,25167 5293,25159C5283,25150 5278,25153 5271,25171C5259,25204 5211,25246 5177,25254C5160,25258 5152,25265 5156,25272C5161,25280 5158,25281 5147,25277C5136,25273 5130,25276 5130,25285C5130,25293 5126,25300 5120,25300C5115,25300 5110,25293 5110,25285ZM5240,25190C5240,25185 5236,25180 5230,25180C5225,25180 5220,25185 5220,25190C5220,25196 5225,25200 5230,25200C5236,25200 5240,25196 5240,25190Z" style="fill-rule:nonzero;"/>
        </g>
        <g transform="matrix(0.416667,0,0,-0.416667,337.19,12440.5)">
            <path d="M5603,25280C5579,25270 5575,25262 5588,25245C5608,25217 5659,25243 5646,25275C5640,25292 5634,25293 5603,25280Z" style="fill-rule:nonzero;"/>
        </g>
        <g transform="matrix(0.416667,0,0,-0.416667,337.19,12440.5)">
            <path d="M5786,25273C5774,25261 5780,25240 5795,25240C5803,25240 5810,25246 5810,25254C5810,25271 5796,25282 5786,25273Z" style="fill-rule:nonzero;"/>
        </g>
        <g transform="matrix(0.416667,0,0,-0.416667,337.19,12440.5)">
            <path d="M6006,25264C5997,25241 5998,25240 6020,25240C6033,25240 6040,25247 6040,25260C6040,25284 6015,25287 6006,25264Z" style="fill-rule:nonzero;"/>
        </g>
        <g transform="matrix(0.416667,0,0,-0.416667,337.19,12440.5)">
            <path d="M4395,25250C4392,25245 4396,25240 4404,25240C4413,25240 4420,25245 4420,25250C4420,25256 4416,25260 4411,25260C4405,25260 4398,25256 4395,25250Z" style="fill-rule:nonzero;"/>
        </g>
        <g transform="matrix(0.416667,0,0,-0.416667,337.19,12440.5)">
            <path d="M6358,25253C6348,25251 6340,25246 6340,25243C6340,25233 6375,25211 6391,25210C6409,25210 6424,25236 6414,25251C6409,25260 6388,25261 6358,25253Z" style="fill-rule:nonzero;"/>
        </g>
        <g transform="matrix(0.416667,0,0,-0.416667,337.19,12440.5)">
            <path d="M4345,25220C4340,25216 4310,25189 4281,25161C4251,25133 4222,25110 4218,25110C4213,25110 4181,25081 4146,25046C4111,25011 4064,24972 4041,24960C3995,24934 3989,24920 4023,24920C4049,24920 4110,24955 4110,24970C4110,24975 4115,24980 4121,24980C4135,24980 4180,25027 4180,25041C4180,25046 4187,25050 4195,25050C4210,25050 4254,25091 4309,25156C4322,25172 4342,25189 4353,25195C4364,25200 4375,25211 4378,25218C4382,25232 4360,25234 4345,25220Z" style="fill-rule:nonzero;"/>
        </g>
        <g transform="matrix(0.416667,0,0,-0.416667,337.19,12440.5)">
            <path d="M5020,25202C5020,25198 5029,25189 5041,25182C5057,25172 5065,25172 5076,25181C5099,25200 5092,25210 5055,25210C5036,25210 5020,25207 5020,25202Z" style="fill-rule:nonzero;"/>
        </g>
        <g transform="matrix(0.416667,0,0,-0.416667,337.19,12440.5)">
            <path d="M5694,25172C5716,25147 5750,25143 5750,25165C5750,25173 5744,25180 5738,25180C5731,25180 5714,25183 5700,25187C5675,25193 5675,25193 5694,25172Z" style="fill-rule:nonzero;"/>
        </g>
        <g transform="matrix(0.416667,0,0,-0.416667,337.19,12440.5)">
            <path d="M6228,25169C6234,25162 6240,25148 6240,25137C6240,25125 6246,25120 6257,25122C6281,25126 6285,25156 6263,25164C6253,25167 6238,25173 6230,25176C6218,25181 6217,25180 6228,25169Z" style="fill-rule:nonzero;"/>
        </g>
        <g transform="matrix(0.416667,0,0,-0.416667,337.19,12440.5)">
            <path d="M5880,25159C5880,25154 5885,25152 5890,25155C5896,25158 5900,25163 5900,25166C5900,25168 5896,25170 5890,25170C5885,25170 5880,25165 5880,25159Z" style="fill-rule:nonzero;"/>
        </g>
        <g transform="matrix(0.416667,0,0,-0.416667,337.19,12440.5)">
            <path d="M6372,25148C6351,25127 6359,25110 6390,25110C6410,25110 6420,25115 6420,25125C6420,25146 6386,25162 6372,25148Z" style="fill-rule:nonzero;"/>
        </g>
        <g transform="matrix(0.416667,0,0,-0.416667,337.19,12440.5)">
            <path d="M6120,25137C6120,25129 6129,25115 6140,25105C6158,25089 6160,25089 6166,25103C6172,25120 6150,25150 6131,25150C6125,25150 6120,25144 6120,25137Z" style="fill-rule:nonzero;"/>
        </g>
        <g transform="matrix(0.416667,0,0,-0.416667,337.19,12440.5)">
            <path d="M4575,25110C4571,25104 4559,25102 4547,25106L4525,25112L4548,25089C4566,25070 4574,25067 4588,25076C4597,25082 4605,25093 4605,25100C4605,25117 4584,25124 4575,25110Z" style="fill-rule:nonzero;"/>
        </g>
        <g transform="matrix(0.416667,0,0,-0.416667,337.19,12440.5)">
            <path d="M5020,25096C5020,25076 5050,25067 5067,25082C5080,25092 5079,25095 5063,25101C5034,25113 5020,25111 5020,25096Z" style="fill-rule:nonzero;"/>
        </g>
        <g transform="matrix(0.416667,0,0,-0.416667,337.19,12440.5)">
            <path d="M6447,25097C6410,25082 6419,25064 6461,25068C6491,25070 6509,25083 6510,25103C6510,25113 6481,25110 6447,25097Z" style="fill-rule:nonzero;"/>
        </g>
        <g transform="matrix(0.416667,0,0,-0.416667,337.19,12440.5)">
            <path d="M4880,25070C4858,25056 4878,25041 4928,25034C4962,25029 4970,25031 4970,25044C4970,25073 4912,25090 4880,25070Z" style="fill-rule:nonzero;"/>
        </g>
        <g transform="matrix(0.416667,0,0,-0.416667,337.19,12440.5)">
            <path d="M5200,25071C5200,25058 5226,25039 5233,25047C5247,25060 5239,25080 5220,25080C5209,25080 5200,25076 5200,25071Z" style="fill-rule:nonzero;"/>
        </g>
        <g transform="matrix(0.416667,0,0,-0.416667,337.19,12440.5)">
            <path d="M4360,25031C4360,25008 4383,24997 4399,25013C4418,25032 4411,25050 4385,25050C4367,25050 4360,25045 4360,25031Z" style="fill-rule:nonzero;"/>
        </g>
        <g transform="matrix(0.416667,0,0,-0.416667,337.19,12440.5)">
            <path d="M5846,25018C5820,25000 5790,24980 5779,24974C5768,24968 5759,24960 5760,24956C5763,24932 5743,24897 5716,24880C5682,24860 5642,24820 5654,24820C5658,24820 5680,24828 5703,24839C5726,24849 5750,24859 5756,24861C5763,24863 5786,24888 5808,24916C5854,24975 5920,25012 5963,25003C5978,25000 5993,24994 5996,24989C6006,24972 6020,24980 6020,25004C6020,25032 6003,25041 5940,25046C5901,25050 5887,25045 5846,25018Z" style="fill-rule:nonzero;"/>
        </g>
        <g transform="matrix(0.416667,0,0,-0.416667,337.19,12440.5)">
            <path d="M4508,25005C4505,25001 4509,24986 4517,24969C4529,24944 4534,24942 4551,24951C4570,24960 4570,24964 4557,24983C4542,25005 4519,25016 4508,25005Z" style="fill-rule:nonzero;"/>
        </g>
        <g transform="matrix(0.416667,0,0,-0.416667,337.19,12440.5)">
            <path d="M5090,24991C5090,24979 5096,24970 5103,24970C5109,24970 5125,24967 5138,24964C5156,24959 5160,24962 5160,24979C5160,24993 5154,25000 5141,25000C5130,25000 5115,25003 5106,25006C5094,25010 5090,25006 5090,24991Z" style="fill-rule:nonzero;"/>
        </g>
        <g transform="matrix(0.416667,0,0,-0.416667,337.19,12440.5)">
            <path d="M6040,24980C6027,24971 6027,24969 6039,24961C6047,24956 6059,24954 6067,24957C6074,24960 6083,24955 6086,24946C6089,24937 6096,24930 6101,24930C6106,24930 6129,24917 6151,24900C6174,24884 6196,24873 6201,24876C6216,24885 6192,24917 6153,24941C6132,24954 6111,24970 6107,24977C6098,24992 6061,24994 6040,24980Z" style="fill-rule:nonzero;"/>
        </g>
        <g transform="matrix(0.416667,0,0,-0.416667,337.19,12440.5)">
            <path d="M4286,24973C4273,24959 4281,24940 4300,24940C4311,24940 4320,24946 4320,24954C4320,24969 4296,24982 4286,24973Z" style="fill-rule:nonzero;"/>
        </g>
        <g transform="matrix(0.416667,0,0,-0.416667,337.19,12440.5)">
            <path d="M5480,24970C5480,24965 5485,24960 5490,24960C5496,24960 5500,24965 5500,24970C5500,24976 5496,24980 5490,24980C5485,24980 5480,24976 5480,24970Z" style="fill-rule:nonzero;"/>
        </g>
        <g transform="matrix(0.416667,0,0,-0.416667,337.19,12440.5)">
            <path d="M5512,24963C5514,24953 5522,24945 5530,24945C5538,24945 5546,24953 5548,24963C5550,24975 5545,24980 5530,24980C5515,24980 5510,24975 5512,24963Z" style="fill-rule:nonzero;"/>
        </g>
        <g transform="matrix(0.416667,0,0,-0.416667,337.19,12440.5)">
            <path d="M4926,24942C4915,24932 4920,24920 4935,24920C4943,24920 4950,24915 4950,24909C4950,24904 4955,24902 4960,24905C4977,24915 4971,24937 4951,24943C4940,24946 4929,24945 4926,24942Z" style="fill-rule:nonzero;"/>
        </g>
        <g transform="matrix(0.416667,0,0,-0.416667,337.19,12440.5)">
            <path d="M5368,24923C5348,24918 5336,24890 5349,24877C5355,24871 5371,24873 5394,24884C5433,24902 5439,24914 5414,24924C5398,24930 5395,24930 5368,24923Z" style="fill-rule:nonzero;"/>
        </g>
        <g transform="matrix(0.416667,0,0,-0.416667,337.19,12440.5)">
            <path d="M3957,24914C3943,24900 3950,24889 3970,24892C3982,24894 3991,24900 3991,24905C3991,24917 3967,24923 3957,24914Z" style="fill-rule:nonzero;"/>
        </g>
        <g transform="matrix(0.416667,0,0,-0.416667,337.19,12440.5)">
            <path d="M4460,24909C4460,24896 4490,24871 4505,24870C4511,24870 4521,24874 4529,24879C4541,24887 4541,24891 4531,24904C4516,24922 4460,24926 4460,24909Z" style="fill-rule:nonzero;"/>
        </g>
        <g transform="matrix(0.416667,0,0,-0.416667,337.19,12440.5)">
            <path d="M5570,24899C5570,24894 5565,24892 5559,24896C5552,24900 5549,24897 5552,24889C5555,24881 5566,24874 5578,24872C5602,24868 5603,24870 5594,24894C5587,24912 5570,24916 5570,24899Z" style="fill-rule:nonzero;"/>
        </g>
        <g transform="matrix(0.416667,0,0,-0.416667,337.19,12440.5)">
            <path d="M3898,24881C3891,24871 3871,24860 3855,24856C3838,24852 3814,24841 3801,24831L3777,24813L3821,24820C3864,24827 3940,24855 3940,24864C3940,24877 3927,24900 3919,24900C3915,24900 3905,24892 3898,24881Z" style="fill-rule:nonzero;"/>
        </g>
        <g transform="matrix(0.416667,0,0,-0.416667,337.19,12440.5)">
            <path d="M4273,24871C4259,24849 4267,24840 4296,24844C4319,24847 4322,24883 4300,24888C4292,24889 4279,24882 4273,24871Z" style="fill-rule:nonzero;"/>
        </g>
        <g transform="matrix(0.416667,0,0,-0.416667,337.19,12440.5)">
            <path d="M4157,24853C4143,24840 4150,24810 4168,24810C4195,24810 4214,24826 4207,24844C4201,24860 4169,24866 4157,24853Z" style="fill-rule:nonzero;"/>
        </g>
        <g transform="matrix(0.416667,0,0,-0.416667,337.19,12440.5)">
            <path d="M6220,24841C6220,24830 6245,24820 6271,24820C6281,24820 6290,24816 6290,24810C6290,24805 6306,24793 6326,24785C6397,24756 6416,24773 6347,24804C6324,24815 6292,24829 6276,24837C6242,24852 6220,24854 6220,24841Z" style="fill-rule:nonzero;"/>
        </g>
        <g transform="matrix(0.416667,0,0,-0.416667,337.19,12440.5)">
            <path d="M4016,24814C3985,24784 4003,24750 4039,24769C4052,24776 4056,24786 4053,24800C4045,24828 4034,24833 4016,24814Z" style="fill-rule:nonzero;"/>
        </g>
        <g transform="matrix(0.416667,0,0,-0.416667,337.19,12440.5)">
            <path d="M5555,24800C5545,24789 5527,24780 5516,24780C5462,24780 5425,24751 5449,24727C5461,24715 5493,24726 5522,24753C5536,24766 5565,24781 5588,24788C5611,24795 5630,24805 5630,24810C5630,24828 5573,24820 5555,24800Z" style="fill-rule:nonzero;"/>
        </g>
        <g transform="matrix(0.416667,0,0,-0.416667,337.19,12440.5)">
            <path d="M6127,24773C6115,24762 6119,24742 6135,24736C6153,24730 6180,24738 6180,24751C6180,24756 6173,24760 6165,24760C6157,24760 6150,24765 6150,24770C6150,24781 6137,24783 6127,24773Z" style="fill-rule:nonzero;"/>
        </g>
        <g transform="matrix(0.416667,0,0,-0.416667,337.19,12440.5)">
            <path d="M3890,24755C3890,24747 3899,24740 3910,24740C3921,24740 3930,24747 3930,24755C3930,24763 3921,24770 3910,24770C3899,24770 3890,24763 3890,24755Z" style="fill-rule:nonzero;"/>
        </g>
        <g transform="matrix(0.416667,0,0,-0.416667,337.19,12440.5)">
            <path d="M6408,24763C6415,24760 6424,24761 6427,24764C6431,24767 6425,24770 6414,24769C6403,24769 6400,24766 6408,24763Z" style="fill-rule:nonzero;"/>
        </g>
        <g transform="matrix(0.416667,0,0,-0.416667,337.19,12440.5)">
            <path d="M5402,24710C5391,24692 5392,24690 5410,24690C5423,24690 5430,24697 5430,24710C5430,24721 5427,24730 5422,24730C5418,24730 5409,24721 5402,24710Z" style="fill-rule:nonzero;"/>
        </g>
        <g transform="matrix(0.416667,0,0,-0.416667,337.19,12440.5)">
            <path d="M6237,24700C6234,24688 6237,24680 6245,24680C6261,24680 6282,24705 6273,24713C6260,24726 6242,24720 6237,24700Z" style="fill-rule:nonzero;"/>
        </g>
        <g transform="matrix(0.416667,0,0,-0.416667,337.19,12440.5)">
            <path d="M5293,24658C5280,24652 5270,24643 5270,24638C5270,24634 5263,24630 5255,24630C5247,24630 5240,24626 5240,24621C5240,24607 5308,24631 5327,24652C5346,24673 5330,24676 5293,24658Z" style="fill-rule:nonzero;"/>
        </g>
        <g transform="matrix(0.416667,0,0,-0.416667,337.19,12440.5)">
            <path d="M6332,24657C6315,24637 6355,24601 6373,24619C6381,24627 6382,24635 6374,24647C6360,24670 6345,24673 6332,24657Z" style="fill-rule:nonzero;"/>
        </g>
        <g transform="matrix(0.416667,0,0,-0.416667,337.19,12440.5)">
            <path d="M5518,24653C5498,24648 5496,24637 5510,24610C5519,24593 5522,24593 5550,24606C5587,24625 5592,24661 5558,24659C5545,24658 5527,24656 5518,24653Z" style="fill-rule:nonzero;"/>
        </g>
        <g transform="matrix(0.416667,0,0,-0.416667,337.19,12440.5)">
            <path d="M6092,24651C6082,24645 6084,24641 6101,24637C6127,24630 6143,24637 6135,24651C6127,24662 6109,24662 6092,24651Z" style="fill-rule:nonzero;"/>
        </g>
        <g transform="matrix(0.416667,0,0,-0.416667,337.19,12440.5)">
            <path d="M5686,24593C5674,24581 5680,24560 5695,24560C5703,24560 5710,24566 5710,24574C5710,24591 5696,24602 5686,24593Z" style="fill-rule:nonzero;"/>
        </g>
        <g transform="matrix(0.416667,0,0,-0.416667,337.19,12440.5)">
            <path d="M5364,24580C5332,24568 5327,24553 5349,24541C5374,24527 5400,24537 5400,24560C5400,24584 5390,24590 5364,24580Z" style="fill-rule:nonzero;"/>
        </g>
        <g transform="matrix(0.416667,0,0,-0.416667,337.19,12440.5)">
            <path d="M6183,24575C6180,24566 6180,24557 6183,24553C6193,24543 6220,24559 6220,24575C6220,24595 6191,24595 6183,24575Z" style="fill-rule:nonzero;"/>
        </g>
        <g transform="matrix(0.416667,0,0,-0.416667,337.19,12440.5)">
            <path d="M6060,24536C6060,24521 6078,24505 6086,24513C6093,24520 6079,24550 6069,24550C6064,24550 6060,24544 6060,24536Z" style="fill-rule:nonzero;"/>
        </g>
        <g transform="matrix(0.416667,0,0,-0.416667,337.19,12440.5)">
            <path d="M5188,24513C5162,24506 5166,24480 5193,24480C5206,24480 5221,24475 5228,24468C5237,24459 5241,24461 5246,24473C5255,24497 5241,24514 5224,24499C5216,24493 5207,24490 5203,24494C5200,24497 5202,24500 5208,24500C5215,24500 5220,24505 5220,24510C5220,24520 5217,24521 5188,24513Z" style="fill-rule:nonzero;"/>
        </g>
        <g transform="matrix(0.416667,0,0,-0.416667,337.19,12440.5)">
            <path d="M5552,24495C5555,24473 5586,24462 5603,24479C5617,24493 5595,24519 5569,24517C5555,24516 5550,24510 5552,24495Z" style="fill-rule:nonzero;"/>
        </g>
        <g transform="matrix(0.416667,0,0,-0.416667,337.19,12440.5)">
            <path d="M5714,24465C5707,24447 5717,24430 5735,24430C5750,24430 5759,24449 5753,24468C5747,24485 5721,24483 5714,24465Z" style="fill-rule:nonzero;"/>
        </g>
        <g transform="matrix(0.416667,0,0,-0.416667,337.19,12440.5)">
            <path d="M5427,24434C5416,24422 5430,24410 5456,24410C5472,24410 5480,24415 5478,24423C5473,24436 5438,24445 5427,24434Z" style="fill-rule:nonzero;"/>
        </g>
    </g>
</svg>
